<?xml version="1.0" standalone="no"?>
<!DOCTYPE svg PUBLIC "-//W3C//DTD SVG 20010904//EN"
 "http://www.w3.org/TR/2001/REC-SVG-20010904/DTD/svg10.dtd">
<svg version="1.0" xmlns="http://www.w3.org/2000/svg"
 width="256.000000pt" height="256.000000pt" viewBox="0 0 256.000000 256.000000"
 preserveAspectRatio="xMidYMid meet">
<metadata>
Created by potrace 1.11, written by Peter Selinger 2001-2013
</metadata>
<g transform="translate(0.000000,256.000000) scale(0.100000,-0.100000)"
fill="#000000" stroke="none">
<path d="M1635 2549 c-73 -37 -75 -160 -4 -191 24 -11 29 -19 30 -48 0 -19 1
-60 2 -90 l2 -55 85 0 85 0 3 87 c3 81 4 87 30 104 35 23 49 42 56 78 8 38
-19 93 -55 111 -33 17 -202 20 -234 4z"/>
<path d="M1285 2320 c-77 -50 -77 -173 0 -220 113 -70 243 45 185 164 -34 72
-121 98 -185 56z"/>
<path d="M2148 2183 c-105 -85 -139 -117 -131 -122 5 -3 37 -41 72 -84 l63
-77 81 66 c45 37 84 69 86 70 3 3 -129 174 -135 174 -1 0 -17 -12 -36 -27z"/>
<path d="M2465 2174 c-11 -8 -26 -19 -33 -23 -11 -6 -10 -15 6 -45 19 -36 19
-66 -3 -118 -5 -12 2 -26 20 -43 22 -23 28 -25 42 -13 52 43 58 173 10 231
-20 24 -23 25 -42 11z"/>
<path d="M1725 2033 c-17 -3 -20 -10 -17 -47 4 -43 4 -43 43 -42 21 0 39 3 40
6 5 24 3 72 -3 76 -12 8 -41 11 -63 7z"/>
<path d="M1321 1942 c-14 -5 -15 -82 -1 -83 6 -1 19 -1 30 -1 49 0 50 1 50 45
0 42 -1 43 -34 43 -19 0 -39 -2 -45 -4z"/>
<path d="M63 1898 c-31 -15 -48 -61 -37 -101 12 -41 44 -56 194 -96 228 -61
486 -131 538 -147 50 -15 52 -17 52 -52 0 -98 69 -243 148 -312 63 -56 122
-85 239 -116 54 -14 211 -56 348 -94 335 -90 332 -90 405 -86 146 8 273 83
352 206 35 55 72 172 64 203 -26 104 -505 298 -966 391 -231 46 -433 59 -510
33 -39 -14 -32 -16 -455 100 -345 94 -330 91 -372 71z"/>
<path d="M1709 1849 c-1 -5 -1 -20 -1 -34 0 -92 0 -91 35 -89 17 1 37 2 43 3
6 1 10 26 10 64 l-1 62 -43 1 c-23 1 -42 -2 -43 -7z"/>
<path d="M2203 1813 c-8 -3 -13 -21 -13 -43 0 -41 8 -47 55 -46 28 1 30 3 31
44 1 24 -4 43 -10 43 -42 5 -52 5 -63 2z"/>
<path d="M2190 1596 l0 -46 44 0 45 0 -2 43 -2 42 -42 3 -43 3 0 -45z"/>
<path d="M992 831 c-27 -47 -27 -57 -4 -65 9 -3 26 -10 38 -15 18 -8 24 -4 42
34 l20 42 -37 21 -38 21 -21 -38z"/>
<path d="M1429 773 c0 -10 -1 -90 -3 -178 -3 -173 -14 -221 -71 -307 -43 -64
-62 -103 -70 -136 l-7 -32 -30 58 c-101 189 -93 160 -95 325 -1 82 -4 151 -6
153 -3 3 -15 -14 -27 -38 -12 -24 -47 -88 -77 -142 -31 -55 -61 -118 -68 -140
-19 -63 -12 -151 18 -242 l27 -80 415 0 c262 1 418 5 424 11 5 6 20 46 34 90
20 62 25 96 22 150 -4 75 -28 132 -135 315 l-50 85 -1 -130 c-1 -170 -7 -204
-53 -279 l-23 -38 0 65 c0 86 -17 144 -71 242 -24 44 -57 103 -72 130 -15 28
-38 69 -50 93 -24 46 -30 51 -31 25z"/>
<path d="M876 609 c-25 -45 -46 -84 -46 -88 0 -7 71 -44 75 -39 2 4 34 60 69
120 l27 48 -33 20 c-18 11 -36 20 -40 20 -4 0 -27 -36 -52 -81z"/>
<path d="M1913 673 c-18 -9 -33 -21 -33 -26 0 -15 49 -97 58 -97 4 0 21 9 39
19 l31 20 -26 50 c-15 28 -29 51 -32 50 -3 0 -20 -8 -37 -16z"/>
<path d="M2017 488 c-21 -10 -37 -22 -35 -26 2 -4 17 -36 35 -72 29 -58 40
-94 42 -140 1 -12 12 -16 44 -15 40 0 42 1 42 30 0 44 -28 132 -61 191 l-29
52 -38 -20z"/>
<path d="M753 383 c-27 -66 -29 -180 -4 -262 38 -125 36 -121 72 -111 18 5 36
13 40 17 4 5 -3 42 -17 83 -36 111 -36 171 0 261 5 10 -4 20 -29 32 -20 9 -38
17 -41 17 -3 0 -12 -17 -21 -37z"/>
<path d="M2022 85 c-19 -40 -15 -62 12 -69 13 -3 31 -8 38 -11 10 -4 18 7 27
36 7 22 11 42 9 44 -11 9 -49 25 -61 25 -7 0 -19 -11 -25 -25z"/>
</g>
</svg>
